<svg width="32" height="36" viewBox="0 0 32 36" fill="none" xmlns="http://www.w3.org/2000/svg">
<path d="M5.668 35.936C3.96933 35.936 2.652 35.6067 1.716 34.948C0.814667 34.2893 0.364 33.4053 0.364 32.296C0.364 31.3253 0.693333 30.58 1.352 30.06C2.04533 29.54 2.84267 29.28 3.744 29.28C4.64533 29.28 5.44267 29.488 6.136 29.904C6.82933 30.2853 7.47067 30.9613 8.06 31.932L8.996 33.544C9.16933 33.7867 9.37733 33.908 9.62 33.908C9.89733 33.908 10.088 33.752 10.192 33.44C10.4 32.7467 10.5387 31.7413 10.608 30.424C10.712 29.072 10.764 27.4427 10.764 25.536C10.764 23.352 10.712 20.544 10.608 17.112C10.504 13.68 10.4 9.45067 10.296 4.424C10.296 2.93333 9.74133 1.99733 8.632 1.616L7.436 1.2V0.679999H21.06V1.2L19.916 1.616C19.292 1.85866 18.8587 2.188 18.616 2.604C18.408 2.98533 18.304 3.54 18.304 4.268V14.564C18.304 17.9613 18.148 20.7693 17.836 22.988C17.524 25.2067 17.0213 27.1307 16.328 28.76C15.4613 31.0827 14.04 32.868 12.064 34.116C10.1227 35.3293 7.99067 35.936 5.668 35.936ZM26.843 35.78C25.595 35.78 24.5376 35.3467 23.671 34.48C22.8043 33.6133 22.371 32.5733 22.371 31.36C22.371 30.1467 22.8043 29.0893 23.671 28.188C24.5376 27.2867 25.595 26.836 26.843 26.836C28.091 26.836 29.1483 27.2867 30.015 28.188C30.8816 29.0893 31.315 30.1467 31.315 31.36C31.315 32.5733 30.8816 33.6133 30.015 34.48C29.1483 35.3467 28.091 35.78 26.843 35.78Z" fill="white"/>
</svg>
